<svg width="174" height="33" viewBox="0 0 174 33" fill="none" xmlns="http://www.w3.org/2000/svg">
<path d="M0.761719 15.1025C8.4169 7.98821 17.6262 3.10505 27.4148 0.635543C27.6827 0.567904 28.0181 0.487584 28.4209 0.394554C29.1533 0.225487 29.8841 0.682102 30.0531 1.41439C30.0617 1.4515 30.0687 1.48889 30.074 1.5265C30.1337 1.94067 30.1807 2.28634 30.2148 2.56344C31.4495 12.5789 30.2263 22.9266 26.3629 32.6326C22.9236 31.2079 19.5531 29.5097 16.2812 27.5322L9.33484 31.388C8.92411 31.616 8.40628 31.4678 8.17829 31.0571C8.08908 30.8962 8.05425 30.7107 8.07935 30.5284L9.16252 22.6577C6.13569 20.3223 3.33365 17.794 0.761719 15.1025ZM11.2408 19.9641L12.8017 21.1686L12.1454 25.9366L16.3537 23.6008L18.041 24.6205C20.1144 25.8736 22.2394 27.0155 24.4097 28.0446C26.9246 20.3797 27.7899 12.2843 26.9825 4.26838C19.2171 6.4141 11.9824 10.148 5.74559 15.2645C7.48979 16.9159 9.32284 18.4842 11.2408 19.9641ZM16.4971 19.5814C14.1717 17.9891 13.5773 14.8131 15.1697 12.4875C16.762 10.1621 19.938 9.56779 22.2635 11.1601C24.589 12.7525 25.1833 15.9285 23.591 18.2539C21.9986 20.5795 18.8227 21.1738 16.4971 19.5814ZM18.4192 16.7743C19.1944 17.3051 20.2531 17.107 20.7839 16.3318C21.3146 15.5567 21.1166 14.498 20.3414 13.9672C19.5663 13.4365 18.5074 13.6346 17.9767 14.4096C17.4459 15.1848 17.6442 16.2436 18.4192 16.7743Z" fill="white"/>
<path d="M63.1724 19.7847C63.1724 23.6207 60.0924 26.3087 55.0524 26.3087C49.9844 26.3087 46.8204 23.5927 46.5124 19.3367H50.8244C50.9364 21.5487 52.3644 22.9767 54.9684 22.9767C57.1244 22.9767 58.6644 22.0247 58.6644 20.4007C58.6644 19.1407 57.6844 18.3847 55.9764 18.0487L52.6724 17.4047C49.6204 16.8167 47.2684 15.1647 47.2684 11.8327C47.2684 8.24869 50.4324 5.67269 54.7724 5.67269C59.2804 5.67269 62.5844 8.3047 62.8644 12.5047H58.5524C58.4124 10.4047 56.9564 8.9767 54.8284 8.9767C52.7564 8.9767 51.5804 10.1527 51.5804 11.5527C51.5804 12.9247 52.8404 13.5127 54.2964 13.7927L57.7404 14.4927C61.2684 15.1927 63.1724 16.8167 63.1724 19.7847Z" fill="white"/>
<path d="M74.5989 26.0287V24.1807C73.6189 25.5807 72.1349 26.3087 70.0909 26.3087C66.9829 26.3087 64.9109 24.4887 64.9109 21.6887C64.9109 18.7767 67.2629 17.2087 71.6309 17.2087C72.4709 17.2087 73.1988 17.2647 74.1228 17.3767V16.4807C74.1228 14.8007 73.1709 13.8207 71.5469 13.8207C69.8669 13.8207 68.8588 14.8007 68.7188 16.4807H65.2188C65.4428 13.0367 67.9349 10.7967 71.5469 10.7967C75.4669 10.7967 77.7629 12.9527 77.7629 16.6207V26.0287H74.5989ZM68.5788 21.5767C68.5788 22.8367 69.4749 23.6207 70.9309 23.6207C72.9189 23.6207 74.1228 22.5287 74.1228 20.7927V19.7287C73.1988 19.5887 72.5549 19.5327 71.8829 19.5327C69.6709 19.5327 68.5788 20.2327 68.5788 21.5767Z" fill="white"/>
<path d="M89.7407 26.0287V24.1807C88.7607 25.5807 87.2767 26.3087 85.2327 26.3087C82.1247 26.3087 80.0527 24.4887 80.0527 21.6887C80.0527 18.7767 82.4047 17.2087 86.7727 17.2087C87.6127 17.2087 88.3407 17.2647 89.2647 17.3767V16.4807C89.2647 14.8007 88.3127 13.8207 86.6887 13.8207C85.0087 13.8207 84.0007 14.8007 83.8607 16.4807H80.3607C80.5847 13.0367 83.0767 10.7967 86.6887 10.7967C90.6087 10.7967 92.9047 12.9527 92.9047 16.6207V26.0287H89.7407ZM83.7207 21.5767C83.7207 22.8367 84.6167 23.6207 86.0727 23.6207C88.0607 23.6207 89.2647 22.5287 89.2647 20.7927V19.7287C88.3407 19.5887 87.6967 19.5327 87.0247 19.5327C84.8127 19.5327 83.7207 20.2327 83.7207 21.5767Z" fill="white"/>
<path d="M108.607 21.2407C108.607 24.3767 106.227 26.3087 101.971 26.3087C97.7146 26.3087 95.3346 24.2647 95.0266 20.9327H98.7506C98.7786 22.4727 100.095 23.4527 102.027 23.4527C103.539 23.4527 104.687 22.9767 104.687 21.9127C104.687 20.9607 104.071 20.5687 102.643 20.2887L99.9546 19.7847C97.2666 19.3087 95.6426 17.8247 95.6426 15.5007C95.6426 12.7287 98.0226 10.7967 101.747 10.7967C105.499 10.7967 108.075 12.7847 108.355 16.0047H104.631C104.491 14.5487 103.399 13.6527 101.747 13.6527C100.319 13.6527 99.3666 14.1847 99.3666 15.1367C99.3666 16.0327 99.9826 16.3967 101.327 16.6487L104.211 17.1807C107.123 17.7407 108.607 19.0847 108.607 21.2407Z" fill="white"/>
<path d="M110.004 18.5527C110.004 14.1287 112.608 10.7967 116.64 10.7967C118.432 10.7967 119.944 11.5807 121.064 13.0087V5.92469H124.928V26.0287H121.372V23.8727C120.196 25.4407 118.572 26.3087 116.64 26.3087C112.608 26.3087 110.004 22.9207 110.004 18.5527ZM114.008 18.5527C114.008 21.3527 115.604 22.8367 117.508 22.8367C119.44 22.8367 121.036 21.3247 121.036 18.4967C121.036 15.6687 119.412 14.2407 117.508 14.2407C115.604 14.2407 114.008 15.6967 114.008 18.5527Z" fill="white"/>
<path d="M134.618 26.2807C130.138 26.2807 127.142 23.1727 127.142 18.4967C127.142 14.0447 130.25 10.7967 134.562 10.7967C139.294 10.7967 142.43 14.6327 141.73 19.5047H131.118C131.37 21.9407 132.546 23.2847 134.534 23.2847C136.242 23.2847 137.39 22.4447 137.838 20.9607H141.702C140.862 24.3487 138.258 26.2807 134.618 26.2807ZM134.478 13.6527C132.658 13.6527 131.51 14.8287 131.174 17.0407H137.614C137.502 14.9687 136.326 13.6527 134.478 13.6527Z" fill="white"/>
<path d="M156.685 21.2407C156.685 24.3767 154.305 26.3087 150.049 26.3087C145.793 26.3087 143.413 24.2647 143.105 20.9327H146.829C146.857 22.4727 148.173 23.4527 150.105 23.4527C151.617 23.4527 152.765 22.9767 152.765 21.9127C152.765 20.9607 152.149 20.5687 150.721 20.2887L148.033 19.7847C145.345 19.3087 143.721 17.8247 143.721 15.5007C143.721 12.7287 146.101 10.7967 149.825 10.7967C153.577 10.7967 156.153 12.7847 156.433 16.0047H152.709C152.569 14.5487 151.477 13.6527 149.825 13.6527C148.397 13.6527 147.445 14.1847 147.445 15.1367C147.445 16.0327 148.061 16.3967 149.405 16.6487L152.289 17.1807C155.201 17.7407 156.685 19.0847 156.685 21.2407Z" fill="white"/>
<path d="M162.954 26.0287H159.062V5.92469H162.954V17.4047L168.414 11.0767H172.894L166.706 18.2447L173.622 26.0287H168.666L162.954 19.0847V26.0287Z" fill="white"/>
</svg>
