<svg width="136" height="30" viewBox="0 0 136 30" fill="none" xmlns="http://www.w3.org/2000/svg">
<path d="M0.574219 14.0059C6.02423 8.94101 12.5807 5.46451 19.5495 3.70638C19.7403 3.65823 19.979 3.60104 20.2658 3.53481C20.7873 3.41445 21.3075 3.73953 21.4278 4.26087C21.434 4.28729 21.4389 4.31391 21.4427 4.34069C21.4852 4.63555 21.5187 4.88164 21.543 5.07892C22.422 12.2093 21.5511 19.5762 18.8007 26.4862C16.3521 25.472 13.9525 24.2629 11.6231 22.8551L6.67774 25.6002C6.38533 25.7625 6.01666 25.657 5.85435 25.3646C5.79084 25.2501 5.76604 25.118 5.78391 24.9882L6.55506 19.3848C4.40015 17.7221 2.40527 15.9221 0.574219 14.0059ZM8.0347 17.4671L9.14593 18.3246L8.67872 21.7192L11.6747 20.0562L12.876 20.7821C14.3521 21.6743 15.865 22.4873 17.4101 23.2199C19.2005 17.763 19.8166 11.9996 19.2417 6.29273C13.7133 7.82034 8.56266 10.4787 4.12242 14.1213C5.36418 15.297 6.6692 16.4135 8.0347 17.4671ZM11.7768 17.1946C10.1213 16.061 9.69808 13.7999 10.8318 12.1443C11.9654 10.4887 14.2266 10.0656 15.8821 11.1992C17.5378 12.3329 17.9608 14.594 16.8272 16.2496C15.6935 17.9052 13.4325 18.3283 11.7768 17.1946ZM13.1453 15.1961C13.6971 15.574 14.4508 15.433 14.8287 14.8811C15.2066 14.3293 15.0656 13.5755 14.5137 13.1976C13.9619 12.8198 13.2081 12.9609 12.8302 13.5127C12.4523 14.0646 12.5935 14.8183 13.1453 15.1961Z" fill="#2B2B46"/>
<path d="M48.2031 18.094C48.2031 21.108 45.7831 23.22 41.8231 23.22C37.8411 23.22 35.3551 21.086 35.1131 17.742H38.5011C38.5891 19.48 39.7111 20.602 41.7571 20.602C43.4511 20.602 44.6611 19.854 44.6611 18.578C44.6611 17.588 43.8911 16.994 42.5491 16.73L39.9531 16.224C37.5551 15.762 35.7071 14.464 35.7071 11.846C35.7071 9.03 38.1931 7.006 41.6031 7.006C45.1451 7.006 47.7411 9.074 47.9611 12.374H44.5731C44.4631 10.724 43.3191 9.602 41.6471 9.602C40.0191 9.602 39.0951 10.526 39.0951 11.626C39.0951 12.704 40.0851 13.166 41.2291 13.386L43.9351 13.936C46.7071 14.486 48.2031 15.762 48.2031 18.094ZM57.181 23V21.548C56.411 22.648 55.245 23.22 53.639 23.22C51.197 23.22 49.569 21.79 49.569 19.59C49.569 17.302 51.417 16.07 54.849 16.07C55.509 16.07 56.081 16.114 56.807 16.202V15.498C56.807 14.178 56.059 13.408 54.783 13.408C53.463 13.408 52.671 14.178 52.561 15.498H49.811C49.987 12.792 51.945 11.032 54.783 11.032C57.863 11.032 59.667 12.726 59.667 15.608V23H57.181ZM52.451 19.502C52.451 20.492 53.155 21.108 54.299 21.108C55.861 21.108 56.807 20.25 56.807 18.886V18.05C56.081 17.94 55.575 17.896 55.047 17.896C53.309 17.896 52.451 18.446 52.451 19.502ZM69.0782 23V21.548C68.3082 22.648 67.1422 23.22 65.5362 23.22C63.0942 23.22 61.4662 21.79 61.4662 19.59C61.4662 17.302 63.3142 16.07 66.7462 16.07C67.4062 16.07 67.9782 16.114 68.7042 16.202V15.498C68.7042 14.178 67.9562 13.408 66.6802 13.408C65.3602 13.408 64.5682 14.178 64.4582 15.498H61.7082C61.8842 12.792 63.8422 11.032 66.6802 11.032C69.7602 11.032 71.5642 12.726 71.5642 15.608V23H69.0782ZM64.3482 19.502C64.3482 20.492 65.0522 21.108 66.1962 21.108C67.7582 21.108 68.7042 20.25 68.7042 18.886V18.05C67.9782 17.94 67.4722 17.896 66.9442 17.896C65.2062 17.896 64.3482 18.446 64.3482 19.502ZM83.9014 19.238C83.9014 21.702 82.0314 23.22 78.6874 23.22C75.3434 23.22 73.4734 21.614 73.2314 18.996H76.1574C76.1794 20.206 77.2134 20.976 78.7314 20.976C79.9194 20.976 80.8214 20.602 80.8214 19.766C80.8214 19.018 80.3374 18.71 79.2154 18.49L77.1034 18.094C74.9914 17.72 73.7154 16.554 73.7154 14.728C73.7154 12.55 75.5854 11.032 78.5114 11.032C81.4594 11.032 83.4834 12.594 83.7034 15.124H80.7774C80.6674 13.98 79.8094 13.276 78.5114 13.276C77.3894 13.276 76.6414 13.694 76.6414 14.442C76.6414 15.146 77.1254 15.432 78.1814 15.63L80.4474 16.048C82.7354 16.488 83.9014 17.544 83.9014 19.238ZM84.9992 17.126C84.9992 13.65 87.0452 11.032 90.2132 11.032C91.6212 11.032 92.8092 11.648 93.6892 12.77V7.204H96.7252V23H93.9312V21.306C93.0072 22.538 91.7312 23.22 90.2132 23.22C87.0452 23.22 84.9992 20.558 84.9992 17.126ZM88.1452 17.126C88.1452 19.326 89.3992 20.492 90.8952 20.492C92.4132 20.492 93.6672 19.304 93.6672 17.082C93.6672 14.86 92.3912 13.738 90.8952 13.738C89.3992 13.738 88.1452 14.882 88.1452 17.126ZM104.339 23.198C100.819 23.198 98.4647 20.756 98.4647 17.082C98.4647 13.584 100.907 11.032 104.295 11.032C108.013 11.032 110.477 14.046 109.927 17.874H101.589C101.787 19.788 102.711 20.844 104.273 20.844C105.615 20.844 106.517 20.184 106.869 19.018H109.905C109.245 21.68 107.199 23.198 104.339 23.198ZM104.229 13.276C102.799 13.276 101.897 14.2 101.633 15.938H106.693C106.605 14.31 105.681 13.276 104.229 13.276ZM121.677 19.238C121.677 21.702 119.807 23.22 116.463 23.22C113.119 23.22 111.249 21.614 111.007 18.996H113.933C113.955 20.206 114.989 20.976 116.507 20.976C117.695 20.976 118.597 20.602 118.597 19.766C118.597 19.018 118.113 18.71 116.991 18.49L114.879 18.094C112.767 17.72 111.491 16.554 111.491 14.728C111.491 12.55 113.361 11.032 116.287 11.032C119.235 11.032 121.259 12.594 121.479 15.124H118.553C118.443 13.98 117.585 13.276 116.287 13.276C115.165 13.276 114.417 13.694 114.417 14.442C114.417 15.146 114.901 15.432 115.957 15.63L118.223 16.048C120.511 16.488 121.677 17.544 121.677 19.238ZM126.603 23H123.545V7.204H126.603V16.224L130.893 11.252H134.413L129.551 16.884L134.985 23H131.091L126.603 17.544V23Z" fill="#2B2B46"/>
</svg>
