<svg width="42" height="36" viewBox="0 0 42 36" fill="none" xmlns="http://www.w3.org/2000/svg">
<g clip-path="url(#clip0_8817_78)">
<path d="M0 18C0 8.05888 8.05888 0 18 0H23.2683C33.2094 0 41.2683 8.05888 41.2683 18C41.2683 27.9411 33.2094 36 23.2683 36H18C8.05887 36 0 27.9411 0 18Z" fill="#D0F8FF"/>
<path fill-rule="evenodd" clip-rule="evenodd" d="M13.6956 14.3036C13.7506 13.7921 13.9928 13.319 14.3756 12.9753C14.7583 12.6315 15.2547 12.4414 15.7691 12.4414H25.5008C26.0153 12.4414 26.5116 12.6315 26.8944 12.9753C27.2772 13.319 27.5193 13.7921 27.5744 14.3036C27.5848 14.3579 27.5883 14.4128 27.5855 14.467L27.5862 14.5268V21.478C27.5862 22.0311 27.3665 22.5615 26.9754 22.9526C26.5843 23.3436 26.0539 23.5634 25.5008 23.5634H15.7691C15.2161 23.5634 14.6856 23.3436 14.2946 22.9526C13.9035 22.5615 13.6838 22.0311 13.6838 21.478V14.5268L13.6845 14.467C13.6817 14.4123 13.6855 14.3575 13.6956 14.3036ZM15.074 15.7474V21.478C15.074 21.6623 15.1473 21.8392 15.2776 21.9695C15.408 22.0999 15.5848 22.1731 15.7691 22.1731H25.5008C25.6852 22.1731 25.862 22.0999 25.9924 21.9695C26.1227 21.8392 26.196 21.6623 26.196 21.478V15.7474L21.0402 19.2626C20.922 19.3471 20.7803 19.3925 20.635 19.3925C20.4897 19.3925 20.348 19.3471 20.2297 19.2626L15.074 15.7474ZM20.635 17.8564L15.1894 14.1431C15.2528 14.0473 15.3389 13.9687 15.4401 13.9144C15.5413 13.8601 15.6543 13.8316 15.7691 13.8317H25.5008C25.7427 13.8317 25.9561 13.9554 26.0806 14.1431L20.635 17.8564Z" fill="#1D1B2D"/>
</g>
<defs>
<clipPath id="clip0_8817_78">
<rect width="41.2683" height="36" fill="white"/>
</clipPath>
</defs>
</svg>
