<svg width="42" height="36" viewBox="0 0 42 36" fill="none" xmlns="http://www.w3.org/2000/svg">
<g clip-path="url(#clip0_8817_79)">
<path d="M0 18C0 8.05888 8.05888 0 18 0H23.5385C33.4796 0 41.5385 8.05888 41.5385 18C41.5385 27.9411 33.4796 36 23.5385 36H18C8.05888 36 0 27.9411 0 18Z" fill="#E6E8FF"/>
<path fill-rule="evenodd" clip-rule="evenodd" d="M13.8438 13.0784C13.8438 12.5469 14.0549 12.0371 14.4308 11.6612C14.8066 11.2854 15.3164 11.0742 15.848 11.0742H17.5545C18.0347 11.0742 18.5001 11.2406 18.8714 11.545C19.2428 11.8495 19.4972 12.2732 19.5913 12.7441L19.9395 14.4852C19.9969 14.7716 19.9931 15.0669 19.9286 15.3518C19.8641 15.6367 19.7402 15.9047 19.565 16.1384L19.2721 16.5282C19.227 16.5885 19.1977 16.6591 19.187 16.7336C19.1764 16.8082 19.1847 16.8842 19.2112 16.9547C19.4337 17.5481 19.7808 18.087 20.2289 18.5352C20.6771 18.9834 21.216 19.3304 21.8094 19.5529C21.8799 19.5794 21.9559 19.5877 22.0305 19.5771C22.105 19.5664 22.1757 19.5372 22.2359 19.492L22.6257 19.1991C22.8594 19.024 23.1275 18.9001 23.4123 18.8355C23.6972 18.771 23.9925 18.7673 24.2789 18.8246L26.0201 19.1728C26.4909 19.267 26.9147 19.5213 27.2191 19.8927C27.5236 20.264 27.6899 20.7294 27.6899 21.2096V22.9161C27.6899 23.4477 27.4787 23.9575 27.1029 24.3333C26.727 24.7092 26.2172 24.9204 25.6857 24.9204C19.1454 24.9204 13.8438 19.6187 13.8438 13.0784ZM15.848 12.4588C15.5053 12.4588 15.2284 12.7358 15.2284 13.0784C15.2284 18.8537 19.9104 23.5358 25.6857 23.5358C26.0277 23.5358 26.3053 23.2588 26.3053 22.9161V21.2096C26.3054 21.0495 26.2499 20.8943 26.1484 20.7705C26.0469 20.6467 25.9057 20.5618 25.7487 20.5304L24.0075 20.1822C23.9121 20.1631 23.8136 20.1643 23.7187 20.1858C23.6237 20.2072 23.5344 20.2485 23.4564 20.3068L23.0667 20.5997C22.8204 20.7842 22.5316 20.9038 22.2269 20.9473C21.9223 20.9909 21.6116 20.957 21.3234 20.8489C20.545 20.557 19.8381 20.1018 19.2502 19.5139C18.6624 18.926 18.2072 18.2191 17.9152 17.4407C17.807 17.1526 17.7732 16.8418 17.8167 16.5372C17.8603 16.2325 17.9799 15.9437 18.1644 15.6975L18.4566 15.3077C18.5151 15.2298 18.5564 15.1405 18.578 15.0455C18.5996 14.9506 18.6009 14.8521 18.5819 14.7566L18.2337 13.0154C18.2023 12.8586 18.1176 12.7174 17.9939 12.6159C17.8702 12.5144 17.7152 12.4589 17.5552 12.4588H15.848Z" fill="#1D1B2D"/>
</g>
<defs>
<clipPath id="clip0_8817_79">
<rect width="41.5385" height="36" fill="white"/>
</clipPath>
</defs>
</svg>
